<svg width="46" height="46" viewBox="0 0 46 46" fill="none" xmlns="http://www.w3.org/2000/svg">
<g clip-path="url(#clip0)">
<path d="M38.7507 23.0002C42.4088 19.1643 46.5312 13.8792 45.9156 8.61995C45.4221 4.40474 41.5882 0.567075 37.3688 0.0731865C32.1045 -0.542729 26.8169 3.58695 22.9886 7.238C19.1702 3.59661 13.8782 -0.543451 8.60828 0.0731865C4.39298 0.566623 0.55541 4.40058 0.0615212 8.61995C-0.554665 13.8835 3.57564 19.1721 7.22634 23.0002C3.56824 26.8361 -0.554214 32.1211 0.0615212 37.3805C0.554958 41.5957 4.38892 45.4333 8.60828 45.9272C13.8714 46.5433 19.1593 42.4141 22.9885 38.7624C26.5551 42.1637 31.3911 45.9883 36.3101 45.9883C38.9453 45.9883 41.1897 44.8837 43.0308 43.0426C49.204 36.8692 44.7548 29.2961 38.7507 23.0002ZM40.9871 40.9986C38.6879 43.2979 36.067 43.7036 32.7392 42.2757C31.1351 41.5875 28.4848 40.159 24.006 35.7193C23.4427 35.1609 22.5345 35.1609 21.9712 35.7193C19.8262 37.8457 16.5872 40.8387 13.238 42.2757C9.91021 43.7035 7.28929 43.2979 4.99011 40.9986C2.69084 38.6995 2.2851 36.0786 3.71303 32.7508C4.40129 31.1468 5.82976 28.4962 10.2694 24.0176C10.8279 23.4542 10.8279 22.5461 10.2694 21.9828C8.14303 19.8378 5.15007 16.5988 3.71303 13.2496C2.28501 9.92169 2.69084 7.30087 4.99011 5.00168C7.28938 2.70241 9.91021 2.29677 13.238 3.7246C14.842 4.41287 17.4925 5.84133 21.9712 10.2811C22.5345 10.8395 23.4426 10.8395 24.006 10.2811C26.151 8.15469 29.39 5.16165 32.7392 3.7246C36.0671 2.29659 38.6879 2.70241 40.9871 5.00168C43.2863 7.30087 43.6921 9.92169 42.2641 13.2496C41.5759 14.8536 40.1474 17.5041 35.7077 21.9828C35.1493 22.5461 35.1493 23.4542 35.7077 24.0176C37.8341 26.1626 40.827 29.4016 42.2641 32.7508C43.692 36.0787 43.2862 38.6995 40.9871 40.9986Z" fill="#595959"/>
<path d="M16.592 18.0469C17.8679 18.0469 18.5268 16.4928 17.6138 15.5799L10.928 8.89403C10.3636 8.3296 9.4486 8.3296 8.88426 8.89403C8.31983 9.45837 8.31983 10.3734 8.88426 10.9378L15.5702 17.6236C15.8523 17.9059 16.2221 18.0469 16.592 18.0469Z" fill="#595959"/>
<path d="M30.409 28.3764C29.8446 27.812 28.9296 27.812 28.3652 28.3764C27.8008 28.9408 27.8008 29.8559 28.3652 30.4202L35.051 37.1061C35.3333 37.3884 35.7031 37.5295 36.073 37.5295C37.3489 37.5295 38.0078 35.9754 37.0948 35.0624L30.409 28.3764Z" fill="#595959"/>
<path d="M29.3877 18.0469C29.7576 18.0469 30.1274 17.9059 30.4095 17.6236L37.0954 10.9378C37.6599 10.3733 37.6599 9.45837 37.0954 8.89403C36.5311 8.3296 35.6161 8.3296 35.0517 8.89403L28.3659 15.5799C27.4527 16.493 28.1119 18.0469 29.3877 18.0469Z" fill="#595959"/>
<path d="M15.5702 28.3765L8.88426 35.0623C8.31983 35.6267 8.31983 36.5417 8.88426 37.106C9.44851 37.6704 10.3636 37.6705 10.928 37.106L17.6138 30.4201C18.1783 29.8558 18.1783 28.9407 17.6138 28.3764C17.0496 27.812 16.1345 27.812 15.5702 28.3765Z" fill="#595959"/>
<path d="M22.9892 17.5776C19.9993 17.5776 17.5669 20.01 17.5669 22.9999C17.5669 25.9898 19.9993 28.4222 22.9892 28.4222C25.9791 28.4222 28.4115 25.9898 28.4115 22.9999C28.4115 20.01 25.979 17.5776 22.9892 17.5776ZM22.9892 25.5319C21.5931 25.5319 20.4572 24.3961 20.4572 22.9999C20.4572 21.6038 21.5931 20.468 22.9892 20.468C24.3853 20.468 25.5211 21.6038 25.5211 22.9999C25.5211 24.3961 24.3852 25.5319 22.9892 25.5319Z" fill="#595959"/>
</g>
<defs>
<clipPath id="clip0">
<rect width="46" height="46" fill="white"/>
</clipPath>
</defs>
</svg>
